<svg version="1.1" id="Layer_1" xmlns="http://www.w3.org/2000/svg" xmlns:xlink="http://www.w3.org/1999/xlink" x="0px" y="0px"
	 width="100%" viewBox="0 0 410 198" enable-background="new 0 0 410 198" xml:space="preserve">
<path fill="#FEFEFE" opacity="1.000000" stroke="none" 
	d="
M304.000000,199.000000 
	C202.666702,199.000000 101.833397,199.000000 1.000068,199.000000 
	C1.000045,133.000046 1.000045,67.000099 1.000023,1.000112 
	C137.666580,1.000075 274.333160,1.000075 410.999817,1.000037 
	C410.999878,66.999886 410.999878,132.999771 410.999939,198.999832 
	C375.500000,199.000000 340.000000,199.000000 304.000000,199.000000 
M175.962753,123.025185 
	C170.523056,123.025185 165.083359,123.025185 159.474640,123.025185 
	C159.474640,143.010406 159.474640,162.432053 159.474640,182.043335 
	C165.575729,182.043335 171.462463,182.043335 177.602997,182.043335 
	C177.602997,180.364410 177.602432,179.042953 177.603088,177.721497 
	C177.607681,168.556381 177.578598,159.391068 177.630783,150.226227 
	C177.659210,145.234131 179.154587,140.997711 184.268570,139.013123 
	C192.544693,135.801361 199.975479,140.689590 200.135330,149.690872 
	C200.326431,160.451920 200.180420,171.218933 200.180420,182.082428 
	C206.508240,182.082428 212.241623,182.082428 218.315338,182.082428 
	C218.315338,180.120468 218.314941,178.475037 218.315399,176.829590 
	C218.317795,168.164383 218.251785,159.498413 218.349060,150.834259 
	C218.406021,145.760086 219.653122,141.172714 224.983353,139.042404 
	C233.227905,135.747421 240.845993,140.647095 241.002640,149.562271 
	C241.192230,160.352707 241.047577,171.149048 241.047577,182.169739 
	C247.238327,182.169739 253.011230,182.169739 258.919495,182.169739 
	C258.919495,168.984344 259.602478,155.964142 258.734467,143.048172 
	C257.797394,129.104370 245.902206,120.730904 232.024078,122.644127 
	C224.880508,123.628937 219.672485,127.605461 215.185226,132.832687 
	C203.747833,120.114449 194.549545,119.182877 178.026962,128.780914 
	C177.630371,126.910500 177.233765,125.040092 175.962753,123.025185 
M198.007324,60.666092 
	C198.032486,65.296745 197.534225,70.001404 198.176544,74.544800 
	C200.520020,91.121338 215.257889,101.294632 230.561417,96.743759 
	C234.619492,95.536995 238.148544,92.551216 241.816727,90.441948 
	C241.908981,92.368568 242.016235,94.608353 242.118546,96.744766 
	C248.284866,96.744766 254.027054,96.744766 259.679779,96.744766 
	C259.679779,70.456718 259.679779,44.448467 259.679779,18.533150 
	C253.585861,18.533150 247.853699,18.533150 241.709259,18.533150 
	C241.709259,27.401579 241.709259,35.932587 241.709259,43.039597 
	C236.187531,41.014584 230.724106,37.729801 224.992599,37.164860 
	C211.350815,35.820221 201.748383,44.467533 198.007324,60.666092 
M271.977722,146.500000 
	C271.977722,158.415909 271.977722,170.331802 271.977722,182.032394 
	C278.434021,182.032394 284.189545,182.032394 289.919495,182.032394 
	C290.062927,179.637787 290.185608,177.589355 290.326447,175.237656 
	C302.268677,185.399887 316.173737,185.705139 325.648529,176.326141 
	C331.518341,170.515656 334.022461,163.200104 334.507629,155.184525 
	C335.023438,146.663528 333.361664,138.603027 328.023712,131.661331 
	C323.738129,126.088158 317.895325,123.047760 311.019531,122.283211 
	C302.965790,121.387657 296.130341,124.281525 290.008728,130.946167 
	C290.008728,121.317055 290.008728,112.739197 290.008728,103.964645 
	C283.899902,103.964645 278.163361,103.964645 271.977722,103.964645 
	C271.977722,117.931725 271.977722,131.715866 271.977722,146.500000 
M77.176674,40.510174 
	C65.464630,47.789242 59.916409,59.872135 62.364510,72.768059 
	C65.084969,87.098747 73.170166,94.963211 87.871796,97.578987 
	C100.796059,99.878532 114.782791,93.162712 120.287704,82.014290 
	C126.526100,69.380455 124.254532,53.604023 114.240799,44.774998 
	C103.324997,35.150639 90.838486,34.860825 77.176674,40.510174 
M88.001328,153.443741 
	C89.489357,158.818771 89.977524,164.763992 92.655739,169.460266 
	C100.228462,182.739105 118.927856,187.168289 133.622086,179.957611 
	C147.066681,173.360153 153.321594,156.408707 147.835190,141.438766 
	C142.965744,128.152222 128.904404,120.072762 114.715034,122.408348 
	C97.830704,125.187523 88.523064,135.683640 88.001328,153.443741 
M137.165207,88.297806 
	C146.707275,97.856941 158.143875,99.998528 170.701996,96.233871 
	C182.961075,92.558853 190.445221,82.767982 191.179993,70.186363 
	C191.941406,57.148598 187.618195,46.562798 175.617386,40.234882 
	C164.371811,34.305176 148.608505,36.358093 139.472443,44.233982 
	C127.170845,54.838779 126.852554,76.590851 137.165207,88.297806 
M343.517731,166.773636 
	C351.920471,184.896103 374.573273,186.428696 387.300262,179.285919 
	C401.487335,171.323669 406.636047,151.711899 398.424591,137.018005 
	C390.464569,122.774048 369.906586,117.678612 355.106842,126.281403 
	C341.881653,133.968933 337.114777,149.868042 343.517731,166.773636 
M36.820908,178.799377 
	C55.778877,189.375061 77.322334,180.982391 81.623863,161.151840 
	C80.472923,161.084564 79.349022,160.967468 78.224594,160.962204 
	C73.726151,160.941162 69.218758,160.802368 64.735031,161.060654 
	C63.584602,161.126938 62.222660,162.268326 61.444809,163.287445 
	C56.280693,170.053329 47.191067,169.116211 43.831699,161.276520 
	C41.429813,155.671310 41.440422,149.880020 43.786930,144.268448 
	C47.067310,136.423538 56.185387,135.433685 61.443714,142.149826 
	C62.256516,143.187958 63.598495,144.434723 64.743393,144.484299 
	C70.324730,144.725861 75.922241,144.593567 81.927055,144.593567 
	C80.270210,137.608017 77.342949,132.203415 72.167007,128.154541 
	C59.730827,118.426399 39.025665,120.770622 29.867010,132.917725 
	C19.400377,146.799576 22.437180,168.490921 36.820908,178.799377 
M51.558895,13.816499 
	C45.593098,13.938137 40.027523,15.300780 35.432156,19.343630 
	C30.000696,24.122042 29.338135,30.786633 28.781847,37.480171 
	C26.616747,37.687336 24.708475,37.869926 22.846947,38.048046 
	C22.846947,43.127995 22.846947,47.875904 22.846947,52.710289 
	C24.985250,52.808369 26.790754,52.891182 29.092722,52.996765 
	C29.092722,67.622169 29.092722,82.169724 29.092722,96.791031 
	C35.342728,96.791031 41.088112,96.791031 47.233574,96.791031 
	C47.233574,82.169891 47.233574,67.774948 47.233574,53.097458 
	C50.669556,52.928577 53.723583,52.778473 56.791649,52.627674 
	C56.791649,47.492111 56.791649,42.732803 56.791649,37.419113 
	C53.502811,37.419113 50.465141,37.419113 47.430946,37.419113 
	C46.966934,30.222347 51.418880,28.977423 56.598526,28.850576 
	C56.598526,23.734726 56.598526,18.972902 56.598526,13.963285 
	C55.077942,13.883859 53.784290,13.816285 51.558895,13.816499 
z"/>
<path fill="#212121" opacity="1.000000" stroke="none" 
	d="
M176.399963,123.097435 
	C177.233765,125.040092 177.630371,126.910500 178.023102,128.781723 
	C194.549545,119.182877 203.747833,120.114449 215.185226,132.832687 
	C219.672485,127.605461 224.880508,123.628937 232.024078,122.644127 
	C245.902206,120.730904 257.797394,129.104370 258.734467,143.048172 
	C259.602478,155.964142 258.919495,168.984344 258.919495,182.169739 
	C253.011230,182.169739 247.238327,182.169739 241.047577,182.169739 
	C241.047577,171.149048 241.192230,160.352707 241.002640,149.562271 
	C240.845993,140.647095 233.227905,135.747421 224.983353,139.042404 
	C219.653122,141.172714 218.406021,145.760086 218.349060,150.834259 
	C218.251785,159.498413 218.317795,168.164383 218.315399,176.829590 
	C218.314941,178.475037 218.315338,180.120468 218.315338,182.082428 
	C212.241623,182.082428 206.508240,182.082428 200.180420,182.082428 
	C200.180420,171.218933 200.326431,160.451920 200.135330,149.690872 
	C199.975479,140.689590 192.544693,135.801361 184.268570,139.013123 
	C179.154587,140.997711 177.659210,145.234131 177.630783,150.226227 
	C177.578598,159.391068 177.607681,168.556381 177.603088,177.721497 
	C177.602432,179.042953 177.602997,180.364410 177.602997,182.043335 
	C171.462463,182.043335 165.575729,182.043335 159.474640,182.043335 
	C159.474640,162.432053 159.474640,143.010406 159.474640,123.025185 
	C165.083359,123.025185 170.523056,123.025185 176.399963,123.097435 
z"/>
<path fill="#1E1E1E" opacity="1.000000" stroke="none" 
	d="
M198.050430,60.247520 
	C201.748383,44.467533 211.350815,35.820221 224.992599,37.164860 
	C230.724106,37.729801 236.187531,41.014584 241.709259,43.039597 
	C241.709259,35.932587 241.709259,27.401579 241.709259,18.533150 
	C247.853699,18.533150 253.585861,18.533150 259.679779,18.533150 
	C259.679779,44.448467 259.679779,70.456718 259.679779,96.744766 
	C254.027054,96.744766 248.284866,96.744766 242.118546,96.744766 
	C242.016235,94.608353 241.908981,92.368568 241.816727,90.441948 
	C238.148544,92.551216 234.619492,95.536995 230.561417,96.743759 
	C215.257889,101.294632 200.520020,91.121338 198.176544,74.544800 
	C197.534225,70.001404 198.032486,65.296745 198.050430,60.247520 
M223.166122,80.667885 
	C228.819809,83.144447 233.960083,82.394218 238.226807,77.871521 
	C242.404526,73.443176 243.124161,65.408501 240.083862,59.565025 
	C237.710709,55.003773 233.907761,52.739655 228.763947,52.773926 
	C223.594131,52.808369 219.857819,55.239712 217.565262,59.793861 
	C213.941330,66.992737 215.984818,75.210686 223.166122,80.667885 
z"/>
<path fill="#1E1E1E" opacity="1.000000" stroke="none" 
	d="
M271.977722,146.000000 
	C271.977722,131.715866 271.977722,117.931725 271.977722,103.964645 
	C278.163361,103.964645 283.899902,103.964645 290.008728,103.964645 
	C290.008728,112.739197 290.008728,121.317055 290.008728,130.946167 
	C296.130341,124.281525 302.965790,121.387657 311.019531,122.283211 
	C317.895325,123.047760 323.738129,126.088158 328.023712,131.661331 
	C333.361664,138.603027 335.023438,146.663528 334.507629,155.184525 
	C334.022461,163.200104 331.518341,170.515656 325.648529,176.326141 
	C316.173737,185.705139 302.268677,185.399887 290.326447,175.237656 
	C290.185608,177.589355 290.062927,179.637787 289.919495,182.032394 
	C284.189545,182.032394 278.434021,182.032394 271.977722,182.032394 
	C271.977722,170.331802 271.977722,158.415909 271.977722,146.000000 
M313.345734,143.332535 
	C311.561920,141.901611 309.966705,140.072952 307.956451,139.119461 
	C303.228821,136.877075 297.692017,137.946899 294.204010,141.706924 
	C289.565643,146.707001 289.014221,152.656494 291.115753,158.891479 
	C292.872986,164.104919 297.438507,167.253006 302.825043,167.321564 
	C308.224945,167.390305 312.889740,164.380783 314.827728,159.288284 
	C316.815582,154.064667 316.590546,148.895737 313.345734,143.332535 
z"/>
<path fill="#1F1F1F" opacity="1.000000" stroke="none" 
	d="
M77.502060,40.317059 
	C90.838486,34.860825 103.324997,35.150639 114.240799,44.774998 
	C124.254532,53.604023 126.526100,69.380455 120.287704,82.014290 
	C114.782791,93.162712 100.796059,99.878532 87.871796,97.578987 
	C73.170166,94.963211 65.084969,87.098747 62.364510,72.768059 
	C59.916409,59.872135 65.464630,47.789242 77.502060,40.317059 
M88.544899,81.398766 
	C96.000946,82.950996 101.208450,80.636147 103.783356,74.624947 
	C106.808098,67.563599 104.818062,58.324776 99.485359,54.671268 
	C94.711960,51.400948 87.932587,52.230751 84.044128,56.349094 
	C78.598907,62.116222 79.184479,78.222687 88.544899,81.398766 
z"/>
<path fill="#202020" opacity="1.000000" stroke="none" 
	d="
M88.000053,152.989838 
	C88.523064,135.683640 97.830704,125.187523 114.715034,122.408348 
	C128.904404,120.072762 142.965744,128.152222 147.835190,141.438766 
	C153.321594,156.408707 147.066681,173.360153 133.622086,179.957611 
	C118.927856,187.168289 100.228462,182.739105 92.655739,169.460266 
	C89.977524,164.763992 89.489357,158.818771 88.000053,152.989838 
M118.582840,167.496414 
	C124.333687,167.217026 128.412613,164.528412 130.107758,158.943909 
	C131.980072,152.775681 131.857971,146.719864 127.310570,141.609451 
	C123.305183,137.108154 116.111893,136.583313 111.510010,140.462219 
	C105.943558,145.154160 105.898331,151.555313 107.182190,157.894836 
	C108.304016,163.434357 111.883369,166.929337 118.582840,167.496414 
z"/>
<path fill="#1F1F1F" opacity="1.000000" stroke="none" 
	d="
M136.912079,88.040756 
	C126.852554,76.590851 127.170845,54.838779 139.472443,44.233982 
	C148.608505,36.358093 164.371811,34.305176 175.617386,40.234882 
	C187.618195,46.562798 191.941406,57.148598 191.179993,70.186363 
	C190.445221,82.767982 182.961075,92.558853 170.701996,96.233871 
	C158.143875,99.998528 146.707275,97.856941 136.912079,88.040756 
M172.907394,66.608208 
	C172.269028,64.051521 172.017395,61.311226 170.909424,58.977478 
	C168.792480,54.518414 164.916031,52.483517 159.973083,52.672569 
	C155.227203,52.854080 151.751617,55.105808 149.828568,59.457478 
	C147.494781,64.738556 147.489273,70.115143 149.870743,75.377716 
	C151.921143,79.908714 155.552826,82.136856 160.553162,82.060455 
	C167.868607,81.948685 172.039886,77.015572 172.907394,66.608208 
z"/>
<path fill="#1F1F1F" opacity="1.000000" stroke="none" 
	d="
M343.345306,166.429443 
	C337.114777,149.868042 341.881653,133.968933 355.106842,126.281403 
	C369.906586,117.678612 390.464569,122.774048 398.424591,137.018005 
	C406.636047,151.711899 401.487335,171.323669 387.300262,179.285919 
	C374.573273,186.428696 351.920471,184.896103 343.345306,166.429443 
M383.366180,149.325500 
	C381.597931,141.327789 376.997925,137.399475 370.128357,138.020660 
	C363.356476,138.633011 359.028473,144.379517 359.031006,152.755173 
	C359.033569,161.251938 363.239166,167.335159 370.121002,167.194168 
	C373.549103,167.123947 378.283081,165.587860 380.001770,163.063873 
	C382.386169,159.562225 382.489655,154.507401 383.366180,149.325500 
z"/>
<path fill="#202020" opacity="1.000000" stroke="none" 
	d="
M36.524963,178.579956 
	C22.437180,168.490921 19.400377,146.799576 29.867010,132.917725 
	C39.025665,120.770622 59.730827,118.426399 72.167007,128.154541 
	C77.342949,132.203415 80.270210,137.608017 81.927055,144.593567 
	C75.922241,144.593567 70.324730,144.725861 64.743393,144.484299 
	C63.598495,144.434723 62.256516,143.187958 61.443714,142.149826 
	C56.185387,135.433685 47.067310,136.423538 43.786930,144.268448 
	C41.440422,149.880020 41.429813,155.671310 43.831699,161.276520 
	C47.191067,169.116211 56.280693,170.053329 61.444809,163.287445 
	C62.222660,162.268326 63.584602,161.126938 64.735031,161.060654 
	C69.218758,160.802368 73.726151,160.941162 78.224594,160.962204 
	C79.349022,160.967468 80.472923,161.084564 81.623863,161.151840 
	C77.322334,180.982391 55.778877,189.375061 36.524963,178.579956 
z"/>
<path fill="#1E1E1E" opacity="1.000000" stroke="none" 
	d="
M52.024769,13.782605 
	C53.784290,13.816285 55.077942,13.883859 56.598526,13.963285 
	C56.598526,18.972902 56.598526,23.734726 56.598526,28.850576 
	C51.418880,28.977423 46.966934,30.222347 47.430946,37.419113 
	C50.465141,37.419113 53.502811,37.419113 56.791649,37.419113 
	C56.791649,42.732803 56.791649,47.492111 56.791649,52.627674 
	C53.723583,52.778473 50.669556,52.928577 47.233574,53.097458 
	C47.233574,67.774948 47.233574,82.169891 47.233574,96.791031 
	C41.088112,96.791031 35.342728,96.791031 29.092722,96.791031 
	C29.092722,82.169724 29.092722,67.622169 29.092722,52.996765 
	C26.790754,52.891182 24.985250,52.808369 22.846947,52.710289 
	C22.846947,47.875904 22.846947,43.127995 22.846947,38.048046 
	C24.708475,37.869926 26.616747,37.687336 28.781847,37.480171 
	C29.338135,30.786633 30.000696,24.122042 35.432156,19.343630 
	C40.027523,15.300780 45.593098,13.938137 52.024769,13.782605 
z"/>
<path fill="#FBFBFB" opacity="1.000000" stroke="none" 
	d="
M222.849899,80.446770 
	C215.984818,75.210686 213.941330,66.992737 217.565262,59.793861 
	C219.857819,55.239712 223.594131,52.808369 228.763947,52.773926 
	C233.907761,52.739655 237.710709,55.003773 240.083862,59.565025 
	C243.124161,65.408501 242.404526,73.443176 238.226807,77.871521 
	C233.960083,82.394218 228.819809,83.144447 222.849899,80.446770 
z"/>
<path fill="#FBFBFB" opacity="1.000000" stroke="none" 
	d="
M313.573669,143.638855 
	C316.590546,148.895737 316.815582,154.064667 314.827728,159.288284 
	C312.889740,164.380783 308.224945,167.390305 302.825043,167.321564 
	C297.438507,167.253006 292.872986,164.104919 291.115753,158.891479 
	C289.014221,152.656494 289.565643,146.707001 294.204010,141.706924 
	C297.692017,137.946899 303.228821,136.877075 307.956451,139.119461 
	C309.966705,140.072952 311.561920,141.901611 313.573669,143.638855 
z"/>
<path fill="#FBFBFB" opacity="1.000000" stroke="none" 
	d="
M88.177338,81.245758 
	C79.184479,78.222687 78.598907,62.116222 84.044128,56.349094 
	C87.932587,52.230751 94.711960,51.400948 99.485359,54.671268 
	C104.818062,58.324776 106.808098,67.563599 103.783356,74.624947 
	C101.208450,80.636147 96.000946,82.950996 88.177338,81.245758 
z"/>
<path fill="#FBFBFB" opacity="1.000000" stroke="none" 
	d="
M118.203720,167.470978 
	C111.883369,166.929337 108.304016,163.434357 107.182190,157.894836 
	C105.898331,151.555313 105.943558,145.154160 111.510010,140.462219 
	C116.111893,136.583313 123.305183,137.108154 127.310570,141.609451 
	C131.857971,146.719864 131.980072,152.775681 130.107758,158.943909 
	C128.412613,164.528412 124.333687,167.217026 118.203720,167.470978 
z"/>
<path fill="#FBFBFB" opacity="1.000000" stroke="none" 
	d="
M172.908340,67.031204 
	C172.039886,77.015572 167.868607,81.948685 160.553162,82.060455 
	C155.552826,82.136856 151.921143,79.908714 149.870743,75.377716 
	C147.489273,70.115143 147.494781,64.738556 149.828568,59.457478 
	C151.751617,55.105808 155.227203,52.854080 159.973083,52.672569 
	C164.916031,52.483517 168.792480,54.518414 170.909424,58.977478 
	C172.017395,61.311226 172.269028,64.051521 172.908340,67.031204 
z"/>
<path fill="#FAFAFA" opacity="1.000000" stroke="none" 
	d="
M383.467926,149.721527 
	C382.489655,154.507401 382.386169,159.562225 380.001770,163.063873 
	C378.283081,165.587860 373.549103,167.123947 370.121002,167.194168 
	C363.239166,167.335159 359.033569,161.251938 359.031006,152.755173 
	C359.028473,144.379517 363.356476,138.633011 370.128357,138.020660 
	C376.997925,137.399475 381.597931,141.327789 383.467926,149.721527 
z"/>
</svg>