<svg version="1.1" id="Layer_1" xmlns="http://www.w3.org/2000/svg" xmlns:xlink="http://www.w3.org/1999/xlink" x="0px" y="0px"
	 width="100%" viewBox="0 0 240 240" enable-background="new 0 0 240 240" xml:space="preserve">
<path fill="#000000" opacity="1.000000" stroke="none" 
	d="
M105.468536,241.000000 
	C104.959267,227.049454 105.005470,213.097748 104.822868,199.149063 
	C104.770584,195.155060 106.024055,193.314926 110.258156,193.638458 
	C116.190941,194.091797 122.172958,193.107346 128.097122,194.601761 
	C138.654099,197.264832 144.879257,204.707794 145.308075,215.589767 
	C145.786667,227.734680 140.520355,235.866058 129.870285,239.441864 
	C128.769440,239.811493 127.684853,240.229507 126.296356,240.812531 
	C119.312355,241.000000 112.624710,241.000000 105.468536,241.000000 
M130.754486,204.643173 
	C126.857025,202.107269 122.531784,201.306076 117.954285,201.358475 
	C115.485077,201.386734 114.261932,202.454544 114.264771,204.947769 
	C114.274033,213.082840 114.276230,221.218002 114.249336,229.353012 
	C114.241951,231.586014 115.217369,232.534393 117.502281,232.787048 
	C125.136314,233.631180 131.630630,231.026611 134.379517,225.777954 
	C137.902451,219.051331 136.713165,210.941650 130.754486,204.643173 
z"/>
<path fill="#000000" opacity="1.000000" stroke="none" 
	d="
M35.076790,225.079315 
	C33.623459,226.500015 32.396820,227.632584 31.268671,228.855988 
	C29.034769,231.278473 27.185926,231.433105 24.670956,228.839905 
	C22.074162,226.162384 22.783119,224.558655 25.064196,222.283752 
	C53.022652,194.400879 80.912468,166.449173 108.812653,138.507904 
	C110.091805,137.226868 111.301094,135.876053 112.399200,134.710312 
	C112.058426,132.302872 110.362289,131.323441 109.104034,130.062302 
	C81.213875,102.108345 53.312454,74.165596 25.381594,46.252319 
	C23.387617,44.259594 21.515743,42.785149 24.353924,39.754780 
	C27.035912,36.891178 28.749195,36.757145 31.553295,39.607021 
	C45.340179,53.618969 59.313393,67.447517 73.212173,81.349457 
	C87.464264,95.604782 101.703339,109.873123 115.959030,124.124847 
	C117.000870,125.166412 118.131241,126.119415 119.172371,127.069710 
	C121.619736,126.308281 122.843430,124.423904 124.337990,122.930893 
	C152.037872,95.259941 179.728821,67.579956 207.360291,39.840755 
	C209.651093,37.541050 211.373825,36.160072 214.259750,39.191124 
	C216.596512,41.645378 216.824677,43.206673 214.293335,45.721844 
	C195.859711,64.037712 177.570038,82.498344 159.207443,100.885849 
	C149.085938,111.021095 138.905182,121.097153 128.772690,131.221436 
	C127.975929,132.017548 127.348595,132.983231 126.616119,133.903259 
	C128.318359,137.094437 130.991043,139.151688 133.311081,141.477371 
	C160.018417,168.249969 186.734650,195.013947 213.549927,221.678238 
	C216.478851,224.590668 217.448929,226.587616 213.633713,229.601044 
	C210.704514,231.914673 209.353592,230.418076 207.458771,228.510330 
	C192.429916,213.379013 177.353210,198.295212 162.275467,183.212540 
	C149.317871,170.250732 136.266998,157.380890 123.426888,144.303940 
	C120.594223,141.419022 118.841080,141.154755 115.829697,144.191833 
	C89.090538,171.159302 62.196411,197.973114 35.076790,225.079315 
z"/>
<path fill="#000000" opacity="1.000000" stroke="none" 
	d="
M56.712269,153.880737 
	C39.805302,163.541595 22.734985,156.095627 19.429035,137.968018 
	C17.761084,128.822083 21.842131,118.915977 29.295338,114.019073 
	C37.518131,108.616547 48.283546,108.770699 56.522640,114.408936 
	C63.814030,119.398636 67.777771,129.580231 66.006226,138.592697 
	C64.804611,144.705765 61.929073,149.784531 56.712269,153.880737 
M51.282280,121.113518 
	C44.487942,117.213905 38.341492,117.402199 33.276314,121.665115 
	C28.618435,125.585243 26.856518,133.243164 29.052694,140.022507 
	C30.886024,145.681763 35.388783,149.339645 41.005756,149.732773 
	C47.787220,150.207397 52.565769,147.666626 55.378674,142.090637 
	C58.867939,135.173904 57.566570,127.539680 51.282280,121.113518 
z"/>
<path fill="#000000" opacity="1.000000" stroke="none" 
	d="
M218.908661,117.118332 
	C231.484192,132.885132 225.190964,153.269089 206.765060,157.529663 
	C194.197922,160.435516 181.662903,152.678665 178.882355,140.275421 
	C175.815430,126.594643 183.285187,113.687721 196.043961,110.774323 
	C204.620651,108.815880 212.171661,110.915810 218.908661,117.118332 
M216.274414,131.211319 
	C216.177261,130.893295 216.063553,130.579269 215.985382,130.256653 
	C213.934967,121.793449 207.174713,117.050774 199.139313,118.442024 
	C191.386078,119.784424 186.678665,126.851227 187.357849,136.128433 
	C187.946075,144.163223 193.793503,149.733780 201.702362,149.793732 
	C211.115158,149.865097 216.835510,142.979233 216.274414,131.211319 
z"/>
<path fill="#000000" opacity="1.000000" stroke="none" 
	d="
M119.433640,64.393860 
	C111.595444,66.105080 110.912560,65.582527 110.908089,58.263912 
	C110.900978,46.626625 111.032982,34.987797 110.872345,23.352846 
	C110.816772,19.328331 112.129585,17.602793 116.326706,17.769022 
	C122.468254,18.012255 128.627075,17.886549 134.777328,17.814045 
	C137.810730,17.778284 139.376663,18.802126 139.341415,22.145975 
	C139.308105,25.306162 137.717636,26.173721 134.976440,26.154913 
	C131.319458,26.129822 127.660667,26.249062 124.004967,26.181501 
	C119.364166,26.095734 120.317490,29.479464 120.283173,32.144253 
	C120.250038,34.716499 119.612152,37.819145 123.912109,37.664459 
	C126.236259,37.580853 128.567612,37.713963 130.893463,37.657276 
	C133.507507,37.593555 135.367157,38.022133 135.371552,41.380169 
	C135.375641,44.508930 134.020538,45.271526 131.157242,45.382763 
	C120.243980,45.806751 120.267532,45.888420 120.229561,57.130531 
	C120.221756,59.439857 120.591492,61.791580 119.433640,64.393860 
z"/>
</svg>